Coordinates
version=1
nRows=12
nColumns=24
inDegrees=yes

Units are S.I. units (second, meters, Newtons, ...)
If the header above contains a line with 'inDegrees', this indicates whether rotational values are in degrees (yes) or radians (no).

endheader
time	pelvis_tilt	pelvis_list	pelvis_rotation	pelvis_tx	pelvis_ty	pelvis_tz	hip_flexion_r	hip_adduction_r	hip_rotation_r	knee_angle_r	ankle_angle_r	subtalar_angle_r	mtp_angle_r	hip_flexion_l	hip_adduction_l	hip_rotation_l	knee_angle_l	ankle_angle_l	subtalar_angle_l	mtp_angle_l	lumbar_extension	lumbar_bending	lumbar_rotation
      6.22500000	      8.59630432	      2.16389870	   -180.11657796	      0.30776735	      0.49700476	     -1.22288899	     78.78040750	    -29.00344737	     -7.21164733	   -115.80814932	     42.42003055	      9.70942574	      0.00000000	     83.35210206	    -34.12540480	      2.57642187	   -114.26382124	     41.47367928	     19.55222258	      0.00000000	    -11.47460387	      1.79508327	      4.41453038
      6.23000000	      8.58010720	      2.18218790	   -180.09174271	      0.30795256	      0.49545504	     -1.22300060	     78.98593644	    -29.00295285	     -7.11385445	   -116.08940068	     42.47706687	      9.67426042	      0.00000000	     83.61234544	    -34.10350057	      2.77915262	   -114.51421473	     41.53279695	     19.57547492	      0.00000000	    -11.55333633	      1.81052791	      4.40930846
      6.23500000	      8.57178855	      2.20694568	   -180.08955546	      0.30805490	      0.49398222	     -1.22302607	     79.18163745	    -28.97818365	     -6.96391689	   -116.36860080	     42.51788181	      9.77523577	      0.00000000	     83.86618507	    -34.11259571	      2.96264643	   -114.77720699	     41.61258798	     19.59090800	      0.00000000	    -11.61881366	      1.85004164	      4.41629512
      6.24000000	      8.54169062	      2.22133324	   -180.08557071	      0.30829607	      0.49245059	     -1.22308593	     79.38514964	    -28.97361808	     -6.89550358	   -116.62613261	     42.57717145	      9.59948031	      0.00000000	     84.11833310	    -34.09951603	      3.16696698	   -115.04912533	     41.63857267	     19.62241337	      0.00000000	    -11.71281604	      1.87681268	      4.43788723
      6.24500000	      8.48820942	      2.21378465	   -180.06860979	      0.30845012	      0.49105605	     -1.22314341	     79.54275046	    -28.97924817	     -6.76135000	   -116.88371740	     42.64649145	      9.57816347	      0.00000000	     84.29398881	    -34.08694330	      3.31198266	   -115.29097488	     41.68898216	     19.63172284	      0.00000000	    -11.82779717	      1.88248724	      4.43153726
      6.25000000	      8.49295660	      2.19243247	   -180.01719848	      0.30862963	      0.48962280	     -1.22317018	     79.76047682	    -29.02156315	     -6.62974903	   -117.13229959	     42.69314643	      9.54633287	      0.00000000	     84.49930945	    -34.02223157	      3.40630684	   -115.45788911	     41.74474764	     19.61051018	      0.00000000	    -11.87544257	      1.87382754	      4.38331560
      6.25500000	      8.48363344	      2.18009858	   -180.00841299	      0.30879049	      0.48825455	     -1.22327148	     79.95994355	    -29.00994908	     -6.50078214	   -117.37154115	     42.74255998	      9.51023550	      0.00000000	     84.70425248	    -34.01428452	      3.53734553	   -115.66831082	     41.76611938	     19.60958377	      0.00000000	    -11.94015244	      1.85424546	      4.37503550
      6.26000000	      8.45965348	      2.20169156	   -179.99972966	      0.30896513	      0.48688162	     -1.22335602	     80.12860222	    -28.98090338	     -6.40382620	   -117.61009510	     42.79230521	      9.48155006	      0.00000000	     84.93097646	    -34.00338497	      3.72636431	   -115.89188418	     41.79949353	     19.59414758	      0.00000000	    -12.01557426	      1.88179072	      4.39674101
      6.26500000	      8.43780537	      2.21371946	   -179.97102035	      0.30903003	      0.48560165	     -1.22335677	     80.28319387	    -28.98432081	     -6.30218100	   -117.84267184	     42.86774462	      9.42960573	      0.00000000	     85.13024062	    -33.97032995	      3.88847490	   -116.10376555	     41.84297572	     19.58744280	      0.00000000	    -12.07428791	      1.90354571	      4.39301832
      6.27000000	      8.32065568	      2.09773655	   -179.79856288	      0.30896990	      0.48464896	     -1.22277210	     80.36317291	    -29.24187957	     -6.05489052	   -118.04355336	     42.91720388	      9.46600384	      0.00000000	     85.07620458	    -33.72868617	      3.82647567	   -116.30352852	     41.90069980	     19.56596136	      0.00000000	    -12.22726070	      1.87400194	      4.25446476
      6.27500000	      8.28994363	      2.04448594	   -179.75713531	      0.30919152	      0.48341580	     -1.22283839	     80.55527332	    -29.27978319	     -5.88606403	   -118.26825992	     42.96676230	      9.47240885	      0.00000000	     85.21139032	    -33.66838518	      3.89315772	   -116.49145239	     41.93322431	     19.56602198	      0.00000000	    -12.31406229	      1.81441816	      4.22700757
      6.28000000	      8.28011302	      2.01646247	   -179.72505579	      0.30936009	      0.48229167	     -1.22290682	     80.72669120	    -29.28868541	     -5.75713649	   -118.46871904	     43.01957712	      9.43709493	      0.00000000	     85.36889953	    -33.62277782	      3.98399957	   -116.65909085	     41.98566094	     19.57349633	      0.00000000	    -12.36350416	      1.79833057	      4.21355155
